<?xml version="1.0" encoding="iso-8859-1"?>
<!-- Generator: Adobe Illustrator 18.0.0, SVG Export Plug-In . SVG Version: 6.00 Build 0)  -->
<!DOCTYPE svg PUBLIC "-//W3C//DTD SVG 1.1//EN" "http://www.w3.org/Graphics/SVG/1.1/DTD/svg11.dtd">
<svg version="1.1" id="Capa_1" xmlns="http://www.w3.org/2000/svg" xmlns:xlink="http://www.w3.org/1999/xlink" x="0px" y="0px"
	 viewBox="0 0 421.223 421.223" style="enable-background:new 0 0 421.223 421.223;" xml:space="preserve">
<path style="stroke:#000000;stroke-width:0;stroke-linecap:round;stroke-linejoin:round;" d="M421.223,268.863h-8.711
	c6.714-7.861,13.898-24.06,3.402-33.552c-11.418-10.324-13.867,4.764-11.576,16.02c1.371,6.744-0.166,13.332-0.433,17.532h-5.187
	c-0.457-6.206-2.32-12.25-5.452-18.073l24.573-63.927h-26.139l-34.744,30.125c-27.324-15.776-66.153-27.337-110.836-32.149
	c-3.049-9.807-13.155-17.933-26.701-22.031v-47.793c0-24.229-17.43-44.451-40.406-48.818c-1.464-3.706-5.07-6.333-9.297-6.333
	c-5.522,0-10,4.477-10,10v40.5c0,5.522,4.478,10,10,10c4.485,0,8.281-2.953,9.549-7.022c0.095,0.545,0.154,1.102,0.154,1.673v47.793
	c-12.969,3.924-22.779,11.542-26.266,20.791C28.989,190.672,0,227.493,0,271.863c0,49.43,35.951,89.498,199.42,89.498
	c64.056,0,121.051-13.557,157.537-34.623l34.744,30.125h26.139l-24.573-63.927c3.132-5.823,4.995-11.867,5.452-18.073h5.187
	c0.267,4.2,1.804,10.788,0.433,17.533c-2.291,11.255,0.158,26.344,11.576,16.02c10.496-9.493,3.311-25.691-3.404-33.553h8.713
	V268.863z M99.42,293.529c-11.967,0-21.666-9.699-21.666-21.666s9.699-21.666,21.666-21.666s21.666,9.699,21.666,21.666
	S111.387,293.529,99.42,293.529z M199.42,293.529c-11.967,0-21.666-9.699-21.666-21.666s9.699-21.666,21.666-21.666
	c11.967,0,21.666,9.699,21.666,21.666S211.387,293.529,199.42,293.529z M299.42,293.529c-11.967,0-21.666-9.699-21.666-21.666
	s9.699-21.666,21.666-21.666s21.666,9.699,21.666,21.666S311.387,293.529,299.42,293.529z"/>
<g>
</g>
<g>
</g>
<g>
</g>
<g>
</g>
<g>
</g>
<g>
</g>
<g>
</g>
<g>
</g>
<g>
</g>
<g>
</g>
<g>
</g>
<g>
</g>
<g>
</g>
<g>
</g>
<g>
</g>
</svg>
